<svg preserveAspectRatio="none" width="100%" height="100%" overflow="visible" style="display: block;" viewBox="0 0 303 97" fill="none" xmlns="http://www.w3.org/2000/svg">
<path id="Vector" d="M302.1 96.7H235.8V63.3H213.1V8.7H200.5V26H189.8V44.7H171.1V83.3H153.1V22H137.8V42H115.8V2H95.1V86H77.1V27.3H53.1V14H40.5V70H23.8V56.7H9.79999V87.3H0V85.3H7.79999V54.7H25.8V68H38.5V12H55.1V25.3H79.1V84H93.1V0H117.8V40H135.8V20H155.1V81.3H169.1V42.7H187.8V24H198.5V6.7H215.1V61.3H237.8V94.7H302.1V96.7Z" fill="var(--fill-0, #3E495B)"/>
</svg>
