<svg preserveAspectRatio="none" width="100%" height="100%" overflow="visible" style="display: block;" viewBox="0 0 17 21" fill="none" xmlns="http://www.w3.org/2000/svg">
<g id="Group">
<path id="Vector" d="M8.35714 0C12.9729 0 16.7143 3.74143 16.7143 8.35714C16.7143 11.8886 14.2329 15.7371 9.33429 19.944C9.06191 20.178 8.71462 20.3065 8.35554 20.3062C7.99646 20.3059 7.6494 20.1768 7.37743 19.9423L7.05343 19.6611C2.37171 15.564 0 11.8097 0 8.35714C0 3.74143 3.74143 0 8.35714 0ZM8.35714 5.14286C7.50466 5.14286 6.6871 5.4815 6.0843 6.0843C5.4815 6.6871 5.14286 7.50466 5.14286 8.35714C5.14286 9.20962 5.4815 10.0272 6.0843 10.63C6.6871 11.2328 7.50466 11.5714 8.35714 11.5714C9.20963 11.5714 10.0272 11.2328 10.63 10.63C11.2328 10.0272 11.5714 9.20962 11.5714 8.35714C11.5714 7.50466 11.2328 6.6871 10.63 6.0843C10.0272 5.4815 9.20963 5.14286 8.35714 5.14286Z" fill="var(--fill-0, #FF4A52)"/>
</g>
</svg>
