<svg preserveAspectRatio="none" width="100%" height="100%" overflow="visible" style="display: block;" viewBox="0 0 15 24" fill="none" xmlns="http://www.w3.org/2000/svg">
<path id="Vector" d="M12.5032 0H2.20645C0.988307 0 0 1.00781 0 2.25V21.75C0 22.9922 0.988307 24 2.20645 24H12.5032C13.7214 24 14.7097 22.9922 14.7097 21.75V2.25C14.7097 1.00781 13.7214 0 12.5032 0ZM7.35484 22.5C6.54121 22.5 5.88387 21.8297 5.88387 21C5.88387 20.1703 6.54121 19.5 7.35484 19.5C8.16847 19.5 8.82581 20.1703 8.82581 21C8.82581 21.8297 8.16847 22.5 7.35484 22.5ZM12.5032 17.4375C12.5032 17.7469 12.255 18 11.9516 18H2.75806C2.45468 18 2.20645 17.7469 2.20645 17.4375V2.8125C2.20645 2.50313 2.45468 2.25 2.75806 2.25H11.9516C12.255 2.25 12.5032 2.50313 12.5032 2.8125V17.4375Z" fill="var(--fill-0, #FF4A52)"/>
</svg>
