<svg preserveAspectRatio="none" width="100%" height="100%" overflow="visible" style="display: block;" viewBox="0 0 25 25" fill="none" xmlns="http://www.w3.org/2000/svg">
<g id="Icon">
<path d="M21.25 5.625C21.25 6.66053 20.4105 7.5 19.375 7.5C18.3395 7.5 17.5 6.66053 17.5 5.625C17.5 4.58947 18.3395 3.75 19.375 3.75C20.4105 3.75 21.25 4.58947 21.25 5.625Z" fill="var(--fill-0, white)"/>
<path fill-rule="evenodd" clip-rule="evenodd" d="M12.5 18.75C15.9518 18.75 18.75 15.9518 18.75 12.5C18.75 9.04822 15.9518 6.25 12.5 6.25C9.04822 6.25 6.25 9.04822 6.25 12.5C6.25 15.9518 9.04822 18.75 12.5 18.75ZM12.5 16.25C14.5711 16.25 16.25 14.5711 16.25 12.5C16.25 10.4289 14.5711 8.75 12.5 8.75C10.4289 8.75 8.75 10.4289 8.75 12.5C8.75 14.5711 10.4289 16.25 12.5 16.25Z" fill="var(--fill-0, white)"/>
<path fill-rule="evenodd" clip-rule="evenodd" d="M0 12C0 7.79961 0 5.69941 0.817451 4.09507C1.5365 2.68386 2.68386 1.5365 4.09507 0.817451C5.69941 0 7.79961 0 12 0H13C17.2004 0 19.3006 0 20.9049 0.817451C22.3161 1.5365 23.4635 2.68386 24.1825 4.09507C25 5.69941 25 7.79961 25 12V13C25 17.2004 25 19.3006 24.1825 20.9049C23.4635 22.3161 22.3161 23.4635 20.9049 24.1825C19.3006 25 17.2004 25 13 25H12C7.79961 25 5.69941 25 4.09507 24.1825C2.68386 23.4635 1.5365 22.3161 0.817451 20.9049C0 19.3006 0 17.2004 0 13V12ZM12 2.5H13C15.1414 2.5 16.5972 2.50194 17.7224 2.59388C18.8184 2.68343 19.379 2.84574 19.77 3.04497C20.7108 3.52433 21.4757 4.28924 21.955 5.23005C22.1543 5.62105 22.3166 6.18156 22.4061 7.27759C22.4981 8.40282 22.5 9.85855 22.5 12V13C22.5 15.1414 22.4981 16.5972 22.4061 17.7224C22.3166 18.8184 22.1543 19.379 21.955 19.77C21.4757 20.7108 20.7108 21.4757 19.77 21.955C19.379 22.1543 18.8184 22.3166 17.7224 22.4061C16.5972 22.4981 15.1414 22.5 13 22.5H12C9.85855 22.5 8.40282 22.4981 7.27759 22.4061C6.18156 22.3166 5.62105 22.1543 5.23005 21.955C4.28924 21.4757 3.52433 20.7108 3.04497 19.77C2.84574 19.379 2.68343 18.8184 2.59388 17.7224C2.50194 16.5972 2.5 15.1414 2.5 13V12C2.5 9.85855 2.50194 8.40282 2.59388 7.27759C2.68343 6.18156 2.84574 5.62105 3.04497 5.23005C3.52433 4.28924 4.28924 3.52433 5.23005 3.04497C5.62105 2.84574 6.18156 2.68343 7.27759 2.59388C8.40282 2.50194 9.85855 2.5 12 2.5Z" fill="var(--fill-0, white)"/>
</g>
</svg>
