<svg preserveAspectRatio="none" width="100%" height="100%" overflow="visible" style="display: block;" viewBox="0 0 80 68" fill="none" xmlns="http://www.w3.org/2000/svg">
<g id="Quote Mark" opacity="0.3" clip-path="url(#clip0_0_9)">
<path id="&#226;&#128;&#156;" fill-rule="evenodd" clip-rule="evenodd" d="M79.6492 10.6204C67.7195 16.5206 61.7548 23.4533 61.7548 31.4187C66.8395 32.0087 71.0442 34.0983 74.3688 37.6876C77.6935 41.277 79.3558 45.4316 79.3558 50.1518C79.3558 55.1671 77.7424 59.3955 74.5155 62.8373C71.2886 66.2791 67.2307 68 62.3415 68C56.8656 68 52.1231 65.7629 48.114 61.2885C44.1048 56.8141 42.1003 51.3811 42.1003 44.9892C42.1003 25.8134 52.7586 10.8171 74.0755 0L79.6492 10.6204ZM37.5489 10.6204C25.5214 16.5206 19.5078 23.4533 19.5078 31.4187C24.6904 32.0087 28.9439 34.0983 32.2686 37.6876C35.5932 41.277 37.2555 45.4316 37.2555 50.1518C37.2555 55.1671 35.6177 59.3955 32.3419 62.8373C29.0661 66.2791 24.9837 68 20.0945 68C14.6186 68 9.90061 65.7629 5.94035 61.2885C1.9801 56.8141 0 51.3811 0 44.9892C0 25.8134 10.6094 10.8171 31.8285 0L37.5489 10.6204Z" fill="var(--fill-0, #FF4A52)"/>
</g>
<defs>
<clipPath id="clip0_0_9">
<rect width="80" height="68" fill="white"/>
</clipPath>
</defs>
</svg>
